<svg width="366" height="181" viewBox="0 0 366 181" fill="none" xmlns="http://www.w3.org/2000/svg">
<path d="M352.794 50.8795L261.707 8.18348C261.18 7.92901 260.588 7.76474 259.971 7.70168C259.355 7.63862 258.728 7.67823 258.133 7.81785C257.538 7.95747 256.989 8.19388 256.521 8.51121C256.054 8.82855 255.68 9.21948 255.424 9.65779L234.075 48.4145L277.414 68.4179C278.654 68.9641 279.684 69.7543 280.401 70.7083C281.118 71.6622 281.496 72.7459 281.496 73.8493C281.496 74.9526 281.118 76.0363 280.401 76.9903C279.684 77.9442 278.654 78.7344 277.414 79.2806L196.057 116.315L161.486 178.519C161.279 178.702 161.132 178.922 161.059 179.159C160.986 179.395 160.988 179.642 161.066 179.878C161.145 180.114 161.296 180.332 161.507 180.512C161.718 180.692 161.983 180.83 162.279 180.914C162.633 181.013 163.019 181.027 163.384 180.953C163.749 180.88 164.076 180.722 164.322 180.501L224.01 152.607L247.571 178.779C248.087 179.381 248.786 179.876 249.608 180.22C250.43 180.563 251.349 180.745 252.283 180.749H308.829C309.86 180.749 310.872 180.529 311.752 180.113C312.632 179.696 313.346 179.1 313.815 178.39C314.297 177.68 314.526 176.885 314.477 176.085C314.429 175.284 314.106 174.508 313.541 173.837L275.218 128.405L352.809 92.113C361.608 87.9967 366 83.3851 366 78.2899V64.7144C366 59.6074 361.608 54.9958 352.794 50.8795ZM199.503 0.281174L12.8926 91.1223C4.0935 95.2268 -0.191672 99.8384 0.00657417 104.934V118.769C0.22007 123.864 4.62724 128.393 13.2128 132.332L105.565 173.566C106.113 173.814 106.724 173.966 107.356 174.012C107.988 174.058 108.625 173.997 109.224 173.833C109.822 173.669 110.367 173.406 110.82 173.063C111.273 172.719 111.624 172.303 111.848 171.844L132.588 133.087L88.6075 113.827C87.4943 113.383 86.5335 112.741 85.8044 111.953C85.0752 111.166 84.5986 110.256 84.4138 109.298C84.1655 108.063 84.4019 106.8 85.0925 105.671C85.7831 104.541 86.896 103.598 88.2872 102.964L169.035 64.6908L202.325 1.99137C202.459 1.69765 202.472 1.37901 202.363 1.07916C202.254 0.779316 202.027 0.512939 201.715 0.316561C201.402 0.122227 201.015 0.0114725 200.614 0.000843458C200.213 -0.00978554 199.818 0.0802803 199.488 0.257587L199.503 0.281174Z" fill="#000"/>
</svg>
