<svg width="152" height="204" viewBox="0 0 152 204" fill="none" xmlns="http://www.w3.org/2000/svg">
<path d="M74.008 27.2291C74.008 33.0754 69.304 37.8119 63.504 37.8119C57.704 37.8119 53.008 33.0834 53.008 27.2291C53.008 21.3748 57.704 16.6382 63.504 16.6382C69.304 16.6382 74.008 21.3828 74.008 27.2291Z" fill="#184A61"/>
<path d="M87.504 37.8119C81.712 37.8119 77.008 33.0754 77.008 27.2291C77.008 21.3748 81.704 16.6382 87.504 16.6382C93.304 16.6382 98.008 21.3828 98.008 27.2291C98.008 33.0754 93.304 37.8119 87.504 37.8119Z" fill="#184A61"/>
<path d="M111.496 37.8119C105.704 37.8119 101 33.0754 101 27.2291C101 21.3748 105.696 16.6382 111.496 16.6382C117.296 16.6382 122 21.3828 122 27.2291C122 33.0754 117.296 37.8119 111.496 37.8119Z" fill="#184A61"/>
<path d="M39.496 16.6382C45.296 16.6382 50 21.3828 50 27.2291C50 33.0754 45.304 37.8119 39.504 37.8119C33.704 37.8119 29 33.0834 29 27.2291C29 21.3748 33.696 16.6382 39.496 16.6382Z" fill="#184A61"/>
<path d="M111.504 40.8356H39.504V52.9383H111.504V40.8356Z" fill="#184A61"/>
<path d="M78.504 18.15H72.504V12.1027H66.504V6.05537H72.504V0H78.504V6.05537H84.504V12.1027H78.504V18.15Z" fill="#184A61"/>
<g filter="url(#filter0_d_205_29)">
<path d="M148 127.5C148 165.329 115.762 196 76 196C36.238 196 4 165.329 4 127.5C4 89.6709 36.238 59 76 59C115.762 59 148 89.6709 148 127.5ZM137.896 127.5C137.896 94.9796 110.182 68.6128 76 68.6128C41.818 68.6128 14.104 94.9796 14.104 127.5C14.104 160.02 41.818 186.387 76 186.387C110.182 186.387 137.896 160.02 137.896 127.5Z" fill="#184A61"/>
</g>
<path d="M103.61 161.907L83.8334 134.569L109.754 111.131V110H77.3689V111.252L85.7525 119.301L67 138.908L89.528 171.142H112.697V161.911H103.61V161.907Z" fill="#184A61"/>
<path d="M64.1929 77L66.2409 78.0093V119.607V161.204V161.211L67.0108 161.904H73.6005V171.134H42.048V161.9H48.6414L49.4112 161.207V95.9772L40 90.1941V88.4997L64.1929 77Z" fill="#184A61"/>
<defs>
<filter id="filter0_d_205_29" x="0" y="59" width="152" height="145" filterUnits="userSpaceOnUse" color-interpolation-filters="sRGB">
<feFlood flood-opacity="0" result="BackgroundImageFix"/>
<feColorMatrix in="SourceAlpha" type="matrix" values="0 0 0 0 0 0 0 0 0 0 0 0 0 0 0 0 0 0 127 0" result="hardAlpha"/>
<feOffset dy="4"/>
<feGaussianBlur stdDeviation="2"/>
<feComposite in2="hardAlpha" operator="out"/>
<feColorMatrix type="matrix" values="0 0 0 0 0 0 0 0 0 0 0 0 0 0 0 0 0 0 0.25 0"/>
<feBlend mode="normal" in2="BackgroundImageFix" result="effect1_dropShadow_205_29"/>
<feBlend mode="normal" in="SourceGraphic" in2="effect1_dropShadow_205_29" result="shape"/>
</filter>
</defs>
</svg>
