<svg width="82" height="103" viewBox="0 0 82 103" fill="none" xmlns="http://www.w3.org/2000/svg">
<g clip-path="url(#clip0_202_3)">
<path d="M62.8223 81.9939H64.8859V87.7428H44.0921V81.9939H47.1808C47.1808 81.9939 48.3185 81.7801 48.0691 80.8476L39.8964 69.6349L33.4287 75.1195V79.0452C33.4287 80.9842 34.5357 81.9939 35.7759 81.9939H38.6596V87.7428H18.4978V81.9939H21.0296C22.2733 81.9939 23.3803 80.9842 23.3803 79.0452V55.4645C23.3803 54.3836 22.2733 52.9256 21.0296 52.9256H18.4978V47.1766H38.6596V52.9256H35.7759C34.5357 52.9256 33.4287 54.3836 33.4287 55.4645V66.8376L47.3926 54.532C47.5445 54.4019 47.6486 54.2355 47.6918 54.0539C47.735 53.8723 47.7154 53.6837 47.6353 53.5118C47.5553 53.3399 47.4184 53.1925 47.242 53.0882C47.0657 52.9838 46.8577 52.9272 46.6443 52.9256H44.0921V47.1766H64.9167V52.9256H61.9373C60.6971 52.9256 58.9751 53.4482 57.7519 54.4845L47.3038 63.3485L58.9068 79.0155C59.9454 80.3042 61.5444 81.9939 62.8223 81.9939ZM82 67.3662C82 87.045 63.6423 103 41 103C18.3578 103 0 87.045 0 67.3662C0 47.6874 18.3578 31.7323 41 31.7323C63.6423 31.7323 82 47.6874 82 67.3662ZM76.2463 67.3662C76.2463 50.449 60.4648 36.7329 41 36.7329C21.5353 36.7329 5.75367 50.449 5.75367 67.3662C5.75367 84.2833 21.5353 97.9994 41 97.9994C60.4648 97.9994 76.2463 84.2833 76.2463 67.3662Z" fill="#184A61"/>
</g>
<path d="M40.4577 14.1646C40.4577 17.2059 37.8862 19.6698 34.7155 19.6698C31.5449 19.6698 28.9777 17.2101 28.9777 14.1646C28.9777 11.1192 31.5449 8.65523 34.7155 8.65523C37.8862 8.65523 40.4577 11.1234 40.4577 14.1646Z" fill="#184A61"/>
<path d="M47.8355 19.6698C44.6692 19.6698 42.0977 17.2059 42.0977 14.1646C42.0977 11.1192 44.6648 8.65523 47.8355 8.65523C51.0062 8.65523 53.5777 11.1234 53.5777 14.1646C53.5777 17.2059 51.0062 19.6698 47.8355 19.6698Z" fill="#184A61"/>
<path d="M60.9511 19.6698C57.7849 19.6698 55.2133 17.2059 55.2133 14.1646C55.2133 11.1192 57.7805 8.65523 60.9511 8.65523C64.1218 8.65523 66.6933 11.1234 66.6933 14.1646C66.6933 17.2059 64.1218 19.6698 60.9511 19.6698Z" fill="#184A61"/>
<path d="M21.5911 8.65523C24.7618 8.65523 27.3333 11.1234 27.3333 14.1646C27.3333 17.2059 24.7662 19.6698 21.5955 19.6698C18.4249 19.6698 15.8533 17.2101 15.8533 14.1646C15.8533 11.1192 18.4205 8.65523 21.5911 8.65523Z" fill="#184A61"/>
<path d="M60.9555 21.2428H21.5955V27.5386H60.9555V21.2428Z" fill="#184A61"/>
<path d="M42.9155 9.44169H39.6355V6.29585H36.3555V3.15002H39.6355V0H42.9155V3.15002H46.1955V6.29585H42.9155V9.44169Z" fill="#184A61"/>
<defs>
<clipPath id="clip0_202_3">
<rect width="82" height="71.2677" fill="white" transform="translate(0 31.7323)"/>
</clipPath>
</defs>
</svg>
