<svg width="203" height="175" viewBox="0 0 203 175" fill="none" xmlns="http://www.w3.org/2000/svg">
<path d="M199.503 0.281174L12.8926 91.1223C4.0935 95.2268 -0.191672 99.8384 0.00657417 104.934V118.769C0.22007 123.864 4.62724 128.393 13.2128 132.332L105.565 173.566C106.113 173.814 106.724 173.966 107.356 174.012C107.988 174.058 108.625 173.997 109.224 173.833C109.822 173.669 110.367 173.406 110.82 173.063C111.273 172.719 111.624 172.303 111.848 171.844L132.588 133.087L88.6075 113.827C87.4943 113.383 86.5335 112.741 85.8044 111.953C85.0752 111.166 84.5986 110.256 84.4138 109.298C84.1655 108.063 84.4019 106.8 85.0925 105.671C85.7831 104.541 86.896 103.598 88.2872 102.964L169.035 64.6908L202.325 1.99137C202.459 1.69765 202.472 1.37901 202.363 1.07916C202.254 0.779316 202.027 0.512939 201.715 0.316561C201.402 0.122227 201.015 0.0114725 200.614 0.000843458C200.213 -0.00978554 199.818 0.0802803 199.488 0.257587L199.503 0.281174Z" fill="#000"/>
</svg>
