<svg width="205" height="174" viewBox="0 0 205 174" fill="none" xmlns="http://www.w3.org/2000/svg">
<path d="M191.788 43.207L100.701 0.510922C100.174 0.256457 99.5817 0.0921861 98.9653 0.0291262C98.3489 -0.0339337 97.7222 0.0056756 97.1272 0.145297C96.5322 0.284918 95.9826 0.521321 95.5154 0.838657C95.0482 1.15599 94.6742 1.54692 94.4183 1.98523L73.0687 40.7419L116.408 60.7453C117.648 61.2915 118.678 62.0818 119.395 63.0357C120.112 63.9897 120.49 65.0734 120.49 66.1767C120.49 67.2801 120.112 68.3638 119.395 69.3177C118.678 70.2717 117.648 71.0619 116.408 71.6081L35.0511 108.643L0.479998 170.847C0.272602 171.03 0.126017 171.249 0.0529352 171.486C-0.0201467 171.723 -0.017517 171.97 0.0605798 172.206C0.138677 172.441 0.289893 172.659 0.501147 172.839C0.712401 173.02 0.977335 173.158 1.273 173.241C1.62756 173.341 2.01285 173.354 2.37779 173.281C2.74274 173.207 3.0701 173.049 3.31645 172.828L63.0039 144.934L86.5647 171.106C87.0806 171.709 87.7804 172.203 88.6023 172.547C89.4241 172.891 90.3427 173.072 91.2769 173.076H147.823C148.854 173.076 149.866 172.856 150.746 172.44C151.626 172.024 152.34 171.428 152.81 170.717C153.291 170.008 153.52 169.212 153.471 168.412C153.423 167.612 153.1 166.836 152.535 166.164L114.212 120.732L191.803 84.4405C200.602 80.3242 204.994 75.7125 204.994 70.6173V57.0419C204.994 51.9349 200.602 47.3232 191.788 43.207Z" fill="#000"/>
</svg>
